<svg width="36" height="32" viewBox="0 0 36 32" fill="none" xmlns="http://www.w3.org/2000/svg">
<path d="M14.2038 23.1056C14.0678 23.1056 13.9308 23.0588 13.8191 22.9636L9.9731 19.6888C9.84043 19.5757 9.76415 19.4105 9.76415 19.2361C9.76415 19.062 9.84077 18.8968 9.9731 18.7837L13.8191 15.5089C14.0688 15.2959 14.4439 15.3261 14.6568 15.5759C14.8694 15.8259 14.8396 16.201 14.5895 16.4136L11.2752 19.2361L14.5895 22.0585C14.8396 22.2715 14.8694 22.6466 14.6568 22.8963C14.5391 23.0346 14.3719 23.1056 14.2038 23.1056Z" fill="white" fill-opacity="0.83"/>
<path d="M14.1432 22.583L14.1432 22.583C14.1615 22.5986 14.1826 22.6056 14.2038 22.6056L14.1432 22.583ZM14.1432 22.583L10.2975 19.3083C10.2974 19.3083 10.2974 19.3083 10.2974 19.3082C10.2762 19.2901 10.2642 19.264 10.2642 19.2361C10.2642 19.2092 10.276 19.1827 10.2977 19.164C10.2978 19.1639 10.2979 19.1639 10.2979 19.1638L14.1432 15.8895L14.1435 15.8893M14.1432 22.583L14.1435 15.8893M14.1435 15.8893C14.1827 15.8559 14.2423 15.8602 14.2764 15.9002L14.6568 15.5759L14.2759 15.8997C14.3102 15.94 14.3047 15.9995 14.2657 16.0327L14.2653 16.033M14.1435 15.8893L14.2653 16.033M14.2653 16.033L10.951 18.8554L10.504 19.2361M14.2653 16.033L10.504 19.2361M10.504 19.2361L10.951 19.6168M10.504 19.2361L10.951 19.6168M10.951 19.6168L14.2653 22.4392L14.2654 22.4392M10.951 19.6168L14.2654 22.4392M14.2654 22.4392C14.3051 22.473 14.3098 22.5326 14.2761 22.5722L14.2654 22.4392Z" stroke="white" stroke-opacity="0.83"/>
<path d="M21.7962 23.1056C21.6281 23.1056 21.4609 23.0346 21.3435 22.8963C21.1306 22.6466 21.1607 22.2715 21.4105 22.0585L24.7248 19.2361L21.4105 16.4136C21.1607 16.201 21.1306 15.8259 21.3435 15.5759C21.5561 15.3261 21.9315 15.2959 22.1809 15.5089L26.0269 18.7837C26.1596 18.8968 26.2359 19.062 26.2359 19.2361C26.2359 19.4105 26.1596 19.5757 26.0269 19.6888L22.1809 22.9636C22.0692 23.0588 21.9322 23.1056 21.7962 23.1056Z" fill="white" fill-opacity="0.83"/>
<path d="M21.7247 22.5727L21.724 22.5719C21.6906 22.5327 21.6949 22.4732 21.7348 22.439C21.7349 22.439 21.7349 22.439 21.7349 22.439L25.049 19.6168L25.496 19.2361L25.049 18.8554L21.7347 16.033L21.7346 16.0329C21.6953 15.9994 21.6902 15.9399 21.7242 15.9L21.7242 15.9C21.7579 15.8603 21.8175 15.856 21.8563 15.8891L21.8568 15.8895L25.7025 19.1642C25.7026 19.1642 25.7026 19.1642 25.7026 19.1643C25.7239 19.1825 25.7359 19.2086 25.7359 19.2361C25.7359 19.264 25.7238 19.2901 25.7026 19.3082C25.7026 19.3082 25.7026 19.3083 25.7025 19.3083L21.8568 22.583L21.8568 22.583C21.8385 22.5986 21.8174 22.6056 21.7962 22.6056C21.7683 22.6056 21.7429 22.5942 21.7247 22.5727Z" stroke="white" stroke-opacity="0.83"/>
<path d="M16.6385 25.562C16.5977 25.562 16.5566 25.5577 16.5151 25.549C16.1941 25.4814 15.9885 25.166 16.0561 24.8449L18.4531 13.4646C18.5207 13.1435 18.8358 12.9379 19.1572 13.0056C19.4782 13.0732 19.6839 13.3883 19.6162 13.7097L17.2193 25.09C17.1602 25.3699 16.9135 25.562 16.6385 25.562Z" fill="white" fill-opacity="0.83"/>
<path d="M16.5454 24.948L16.5454 24.948C16.5347 24.9986 16.5671 25.0487 16.6176 25.0597C16.6179 25.0597 16.6181 25.0597 16.6183 25.0598L16.5454 24.948ZM16.5454 24.948L18.9423 13.5677M16.5454 24.948L18.9423 13.5677M18.9423 13.5677C18.9423 13.5677 18.9423 13.5676 18.9423 13.5676M18.9423 13.5677L18.9423 13.5676M18.9423 13.5676C18.9531 13.5167 19.003 13.4841 19.0541 13.4948" stroke="white" stroke-opacity="0.83"/>
<path d="M32.0094 31.762H3.99057C1.79032 31.762 0 29.972 0 27.7714V3.99057C0 1.79032 1.79032 0 3.99057 0H32.0094C34.2097 0 36 1.79032 36 3.99057V27.7714C36 29.972 34.2097 31.762 32.0094 31.762ZM3.99057 1.18868C2.44568 1.18868 1.18868 2.44568 1.18868 3.99057V27.7714C1.18868 29.3163 2.44568 30.5733 3.99057 30.5733H32.0094C33.5543 30.5733 34.8113 29.3163 34.8113 27.7714V3.99057C34.8113 2.44568 33.5543 1.18868 32.0094 1.18868H3.99057Z" fill="white" fill-opacity="0.83"/>
<path d="M32.0094 31.262H3.99057C2.06643 31.262 0.5 29.6959 0.5 27.7714V3.99057C0.5 2.06646 2.06646 0.5 3.99057 0.5H32.0094C33.9335 0.5 35.5 2.06646 35.5 3.99057V27.7714C35.5 29.6959 33.9336 31.262 32.0094 31.262ZM3.99057 0.688679C2.16954 0.688679 0.688679 2.16954 0.688679 3.99057V27.7714C0.688679 29.5925 2.16954 31.0733 3.99057 31.0733H32.0094C33.8305 31.0733 35.3113 29.5925 35.3113 27.7714V3.99057C35.3113 2.16954 33.8305 0.688679 32.0094 0.688679H3.99057Z" stroke="white" stroke-opacity="0.83"/>
<path d="M35.4057 9.51705H0.59434C0.265993 9.51705 0 9.25105 0 8.92271C0 8.59469 0.265993 8.32837 0.59434 8.32837H35.4057C35.734 8.32837 36 8.59469 36 8.92271C36 9.25105 35.734 9.51705 35.4057 9.51705Z" fill="white" fill-opacity="0.83"/>
<path d="M35.4057 9.01705H0.59434C0.542136 9.01705 0.5 8.97491 0.5 8.92271C0.5 8.87065 0.542318 8.82837 0.59434 8.82837H35.4057C35.4577 8.82837 35.5 8.87065 35.5 8.92271C35.5 8.97491 35.4579 9.01705 35.4057 9.01705Z" stroke="white" stroke-opacity="0.83"/>
<path d="M10.1549 6.6731C9.11807 6.6731 8.27399 5.82901 8.27399 4.79224C8.27399 3.75513 9.11807 2.91138 10.1549 2.91138C11.192 2.91138 12.0357 3.75513 12.0357 4.79224C12.0357 5.82901 11.192 6.6731 10.1549 6.6731ZM10.1549 4.10006C9.77344 4.10006 9.46267 4.41049 9.46267 4.79224C9.46267 5.17398 9.77344 5.48442 10.1549 5.48442C10.5366 5.48442 10.847 5.17398 10.847 4.79224C10.847 4.41049 10.5366 4.10006 10.1549 4.10006Z" fill="white" fill-opacity="0.83"/>
<path d="M10.1549 6.1731C9.39421 6.1731 8.77399 5.55287 8.77399 4.79224C8.77399 4.03133 9.39416 3.41138 10.1549 3.41138C10.9158 3.41138 11.5357 4.03127 11.5357 4.79224C11.5357 5.55293 10.9158 6.1731 10.1549 6.1731ZM10.1549 3.60006C9.49745 3.60006 8.96267 4.13419 8.96267 4.79224C8.96267 5.45028 9.49745 5.98442 10.1549 5.98442C10.8127 5.98442 11.347 5.45012 11.347 4.79224C11.347 4.13435 10.8127 3.60006 10.1549 3.60006Z" stroke="white" stroke-opacity="0.83"/>
<path d="M4.37596 6.65479C3.33885 6.65479 2.4951 5.81104 2.4951 4.77393C2.4951 3.73682 3.33885 2.89307 4.37596 2.89307C5.41307 2.89307 6.25682 3.73682 6.25682 4.77393C6.25682 5.81104 5.41307 6.65479 4.37596 6.65479ZM4.37596 4.08175C3.99455 4.08175 3.68378 4.39251 3.68378 4.77393C3.68378 5.15567 3.99455 5.46611 4.37596 5.46611C4.7577 5.46611 5.06814 5.15567 5.06814 4.77393C5.06814 4.39251 4.7577 4.08175 4.37596 4.08175Z" fill="white" fill-opacity="0.83"/>
<path d="M4.37596 6.15479C3.61499 6.15479 2.9951 5.53489 2.9951 4.77393C2.9951 4.01296 3.61499 3.39307 4.37596 3.39307C5.13692 3.39307 5.75682 4.01296 5.75682 4.77393C5.75682 5.53489 5.13692 6.15479 4.37596 6.15479ZM4.37596 3.58175C3.7184 3.58175 3.18378 4.11637 3.18378 4.77393C3.18378 5.43197 3.71856 5.96611 4.37596 5.96611C5.03384 5.96611 5.56814 5.43181 5.56814 4.77393C5.56814 4.11653 5.034 3.58175 4.37596 3.58175Z" stroke="white" stroke-opacity="0.83"/>
<path d="M15.9337 6.69095C14.897 6.69095 14.0532 5.8472 14.0532 4.81009C14.0532 3.77332 14.897 2.92957 15.9337 2.92957C16.9709 2.92957 17.8146 3.77332 17.8146 4.81009C17.8146 5.8472 16.9709 6.69095 15.9337 6.69095ZM15.9337 4.11791C15.5523 4.11791 15.2419 4.42835 15.2419 4.81009C15.2419 5.19184 15.5523 5.50227 15.9337 5.50227C16.3155 5.50227 16.6259 5.19184 16.6259 4.81009C16.6259 4.42835 16.3155 4.11791 15.9337 4.11791Z" fill="white" fill-opacity="0.83"/>
<path d="M15.9337 6.19095C15.1732 6.19095 14.5532 5.57112 14.5532 4.81009C14.5532 4.04946 15.1731 3.42957 15.9337 3.42957C16.6948 3.42957 17.3146 4.04952 17.3146 4.81009C17.3146 5.57106 16.6947 6.19095 15.9337 6.19095ZM15.9337 3.61791C15.276 3.61791 14.7419 4.15236 14.7419 4.81009C14.7419 5.46782 15.276 6.00227 15.9337 6.00227C16.5916 6.00227 17.1259 5.46798 17.1259 4.81009C17.1259 4.15221 16.5916 3.61791 15.9337 3.61791Z" stroke="white" stroke-opacity="0.83"/>
</svg>
