<svg width="34" height="34" viewBox="0 0 34 34" fill="none" xmlns="http://www.w3.org/2000/svg">
<mask id="path-1-inside-1" fill="white">
<path d="M16.875 12.35C19.0457 12.35 20.8125 10.5837 20.8125 8.41248C20.8125 6.24123 19.0457 4.47498 16.875 4.47498C14.7043 4.47498 12.9375 6.24123 12.9375 8.41248C12.9375 10.5837 14.7043 12.35 16.875 12.35ZM16.875 5.59998C18.4258 5.59998 19.6875 6.86166 19.6875 8.41248C19.6875 9.96329 18.4258 11.225 16.875 11.225C15.3242 11.225 14.0625 9.96329 14.0625 8.41248C14.0625 6.86166 15.3242 5.59998 16.875 5.59998Z"/>
</mask>
<path d="M16.875 12.35C19.0457 12.35 20.8125 10.5837 20.8125 8.41248C20.8125 6.24123 19.0457 4.47498 16.875 4.47498C14.7043 4.47498 12.9375 6.24123 12.9375 8.41248C12.9375 10.5837 14.7043 12.35 16.875 12.35ZM16.875 5.59998C18.4258 5.59998 19.6875 6.86166 19.6875 8.41248C19.6875 9.96329 18.4258 11.225 16.875 11.225C15.3242 11.225 14.0625 9.96329 14.0625 8.41248C14.0625 6.86166 15.3242 5.59998 16.875 5.59998Z" fill="white" fill-opacity="0.83"/>
<path d="M16.875 20.35C23.4632 20.35 28.8125 15.0027 28.8125 8.41248H12.8125C12.8125 6.1647 14.6282 4.34998 16.875 4.34998V20.35ZM28.8125 8.41248C28.8125 1.8222 23.4632 -3.52502 16.875 -3.52502V12.475C14.6282 12.475 12.8125 10.6602 12.8125 8.41248H28.8125ZM16.875 -3.52502C10.2868 -3.52502 4.9375 1.8222 4.9375 8.41248H20.9375C20.9375 10.6602 19.1218 12.475 16.875 12.475V-3.52502ZM4.9375 8.41248C4.9375 15.0027 10.2868 20.35 16.875 20.35V4.34998C19.1218 4.34998 20.9375 6.1647 20.9375 8.41248H4.9375ZM16.875 13.6C14.0075 13.6 11.6875 11.2799 11.6875 8.41248H27.6875C27.6875 2.44339 22.8441 -2.40002 16.875 -2.40002V13.6ZM11.6875 8.41248C11.6875 5.54501 14.0075 3.22498 16.875 3.22498V19.225C22.8441 19.225 27.6875 14.3816 27.6875 8.41248H11.6875ZM16.875 3.22498C19.7425 3.22498 22.0625 5.54501 22.0625 8.41248H6.0625C6.0625 14.3816 10.9059 19.225 16.875 19.225V3.22498ZM22.0625 8.41248C22.0625 11.2799 19.7425 13.6 16.875 13.6V-2.40002C10.9059 -2.40002 6.0625 2.44339 6.0625 8.41248H22.0625Z" fill="white" fill-opacity="0.83" mask="url(#path-1-inside-1)"/>
<mask id="path-3-inside-2" fill="white">
<path d="M25.875 17.975C28.0457 17.975 29.8125 16.2087 29.8125 14.0375C29.8125 11.8662 28.0457 10.1 25.875 10.1C23.7043 10.1 21.9375 11.8662 21.9375 14.0375C21.9375 16.2087 23.7043 17.975 25.875 17.975ZM25.875 11.225C27.4258 11.225 28.6875 12.4867 28.6875 14.0375C28.6875 15.5883 27.4258 16.85 25.875 16.85C24.3242 16.85 23.0625 15.5883 23.0625 14.0375C23.0625 12.4867 24.3242 11.225 25.875 11.225Z"/>
</mask>
<path d="M25.875 17.975C28.0457 17.975 29.8125 16.2087 29.8125 14.0375C29.8125 11.8662 28.0457 10.1 25.875 10.1C23.7043 10.1 21.9375 11.8662 21.9375 14.0375C21.9375 16.2087 23.7043 17.975 25.875 17.975ZM25.875 11.225C27.4258 11.225 28.6875 12.4867 28.6875 14.0375C28.6875 15.5883 27.4258 16.85 25.875 16.85C24.3242 16.85 23.0625 15.5883 23.0625 14.0375C23.0625 12.4867 24.3242 11.225 25.875 11.225Z" fill="white" fill-opacity="0.83"/>
<path d="M25.875 25.975C32.4632 25.975 37.8125 20.6277 37.8125 14.0375H21.8125C21.8125 11.7897 23.6282 9.97498 25.875 9.97498V25.975ZM37.8125 14.0375C37.8125 7.4472 32.4632 2.09998 25.875 2.09998V18.1C23.6282 18.1 21.8125 16.2852 21.8125 14.0375H37.8125ZM25.875 2.09998C19.2868 2.09998 13.9375 7.4472 13.9375 14.0375H29.9375C29.9375 16.2852 28.1218 18.1 25.875 18.1V2.09998ZM13.9375 14.0375C13.9375 20.6277 19.2868 25.975 25.875 25.975V9.97498C28.1218 9.97498 29.9375 11.7897 29.9375 14.0375H13.9375ZM25.875 19.225C23.0075 19.225 20.6875 16.9049 20.6875 14.0375H36.6875C36.6875 8.06839 31.8441 3.22498 25.875 3.22498V19.225ZM20.6875 14.0375C20.6875 11.17 23.0075 8.84998 25.875 8.84998V24.85C31.8441 24.85 36.6875 20.0066 36.6875 14.0375H20.6875ZM25.875 8.84998C28.7425 8.84998 31.0625 11.17 31.0625 14.0375H15.0625C15.0625 20.0066 19.9059 24.85 25.875 24.85V8.84998ZM31.0625 14.0375C31.0625 16.9049 28.7425 19.225 25.875 19.225V3.22498C19.9059 3.22498 15.0625 8.06839 15.0625 14.0375H31.0625Z" fill="white" fill-opacity="0.83" mask="url(#path-3-inside-2)"/>
<mask id="path-5-inside-3" fill="white">
<path d="M24.1875 23.6C24.1875 25.4613 25.7012 26.975 27.5625 26.975C29.4238 26.975 30.9375 25.4613 30.9375 23.6C30.9375 21.7387 29.4238 20.225 27.5625 20.225C25.7012 20.225 24.1875 21.7387 24.1875 23.6ZM29.8125 23.6C29.8125 24.8409 28.8034 25.85 27.5625 25.85C26.3216 25.85 25.3125 24.8409 25.3125 23.6C25.3125 22.3591 26.3216 21.35 27.5625 21.35C28.8034 21.35 29.8125 22.3591 29.8125 23.6Z"/>
</mask>
<path d="M24.1875 23.6C24.1875 25.4613 25.7012 26.975 27.5625 26.975C29.4238 26.975 30.9375 25.4613 30.9375 23.6C30.9375 21.7387 29.4238 20.225 27.5625 20.225C25.7012 20.225 24.1875 21.7387 24.1875 23.6ZM29.8125 23.6C29.8125 24.8409 28.8034 25.85 27.5625 25.85C26.3216 25.85 25.3125 24.8409 25.3125 23.6C25.3125 22.3591 26.3216 21.35 27.5625 21.35C28.8034 21.35 29.8125 22.3591 29.8125 23.6Z" fill="white" fill-opacity="0.83"/>
<path d="M16.1875 23.6C16.1875 29.8796 21.2829 34.975 27.5625 34.975V18.975C30.1195 18.975 32.1875 21.043 32.1875 23.6H16.1875ZM27.5625 34.975C33.8421 34.975 38.9375 29.8796 38.9375 23.6H22.9375C22.9375 21.043 25.0055 18.975 27.5625 18.975V34.975ZM38.9375 23.6C38.9375 17.3204 33.8421 12.225 27.5625 12.225V28.225C25.0055 28.225 22.9375 26.1569 22.9375 23.6H38.9375ZM27.5625 12.225C21.2829 12.225 16.1875 17.3204 16.1875 23.6H32.1875C32.1875 26.1569 30.1195 28.225 27.5625 28.225V12.225ZM21.8125 23.6C21.8125 20.4226 24.3851 17.85 27.5625 17.85V33.85C33.2217 33.85 37.8125 29.2591 37.8125 23.6H21.8125ZM27.5625 17.85C30.7399 17.85 33.3125 20.4226 33.3125 23.6H17.3125C17.3125 29.2591 21.9033 33.85 27.5625 33.85V17.85ZM33.3125 23.6C33.3125 26.7774 30.7399 29.35 27.5625 29.35V13.35C21.9033 13.35 17.3125 17.9408 17.3125 23.6H33.3125ZM27.5625 29.35C24.3851 29.35 21.8125 26.7774 21.8125 23.6H37.8125C37.8125 17.9408 33.2217 13.35 27.5625 13.35V29.35Z" fill="white" fill-opacity="0.83" mask="url(#path-5-inside-3)"/>
<mask id="path-7-inside-4" fill="white">
<path d="M0.5625 33.725H3.9375C4.24856 33.725 4.5 33.473 4.5 33.1625V31.1414C5.13506 31.5273 5.83425 31.7911 6.59587 31.9244L6.61894 32.1128C6.72975 33.032 7.51162 33.725 8.4375 33.725C9.36337 33.725 10.1453 33.032 10.2561 32.1134L10.386 31.0424C11.8277 29.72 12.5274 27.2804 13.1968 24.9067C14.0389 21.9203 14.8348 19.1 16.875 19.1C18.9141 19.1 19.7089 21.9192 20.5504 24.9033C21.4937 28.2473 22.5624 32.0375 25.875 32.0375C31.1743 32.0375 33.75 27.0695 33.75 16.85C33.75 8.33372 26.3374 1.66247 16.875 1.66247C14.2751 1.66247 11.8058 2.15916 9.52256 3.12722C9.18506 2.74472 8.919 2.47359 8.83519 2.38978C8.61525 2.16984 8.25975 2.16984 8.03981 2.38978C7.83225 2.59734 6.5295 3.92653 5.71781 5.34234C5.29087 5.67141 4.88419 6.02184 4.5 6.38972V3.91247C4.5 3.82528 4.47975 3.73866 4.44094 3.66103L2.75344 0.286031C2.56219 -0.0953437 1.93837 -0.0953437 1.74712 0.286031L0.059625 3.66103C0.02025 3.73866 0 3.82528 0 3.91247V33.1625C0 33.473 0.251438 33.725 0.5625 33.725ZM1.125 32.6V30.9125H3.375V32.6H1.125ZM3.375 4.47497V29.7875H1.125V4.47497H3.375ZM8.4375 32.6C8.08031 32.6 7.77825 32.3328 7.73606 31.9778L6.13631 18.785C5.82581 16.2228 6.16838 13.6173 7.12575 11.225H9.74925C10.7066 13.6173 11.0492 16.2233 10.7387 18.785L9.13894 31.9784C9.09675 32.3328 8.79469 32.6 8.4375 32.6ZM16.875 2.78747C25.7068 2.78747 32.625 8.96428 32.625 16.85C32.625 30.9125 27.5445 30.9125 25.875 30.9125C23.4141 30.9125 22.5495 27.8452 21.6332 24.5978C20.7152 21.3421 19.7657 17.975 16.875 17.975C13.9826 17.975 13.0331 21.3432 12.114 24.6012C11.6932 26.093 11.2607 27.6112 10.6594 28.7868L11.8558 18.9205C12.1922 16.139 11.8063 13.3113 10.7505 10.7187C11.0801 10.1557 11.8125 8.74266 11.8125 7.28747C11.8125 6.28059 11.0346 5.02566 10.2701 4.03341C12.3277 3.20878 14.5446 2.78747 16.875 2.78747ZM8.4375 3.60141C9.43594 4.68816 10.6875 6.35709 10.6875 7.28747C10.6875 8.42428 10.0946 9.59878 9.80831 10.1H7.06669C6.77981 9.60047 6.1875 8.42991 6.1875 7.28747C6.1875 6.35934 7.43962 4.68872 8.4375 3.60141ZM5.067 7.41178C5.10694 8.82253 5.80387 10.172 6.1245 10.7193C5.06869 13.3118 4.68281 16.139 5.01919 18.9211L6.45244 30.7432C5.72006 30.5665 5.07713 30.2347 4.5 29.752V8.01534C4.68169 7.80891 4.87125 7.60809 5.067 7.41178ZM2.25 1.79522L3.02737 3.34997H1.47263L2.25 1.79522Z"/>
</mask>
<path d="M0.5625 33.725H3.9375C4.24856 33.725 4.5 33.473 4.5 33.1625V31.1414C5.13506 31.5273 5.83425 31.7911 6.59587 31.9244L6.61894 32.1128C6.72975 33.032 7.51162 33.725 8.4375 33.725C9.36337 33.725 10.1453 33.032 10.2561 32.1134L10.386 31.0424C11.8277 29.72 12.5274 27.2804 13.1968 24.9067C14.0389 21.9203 14.8348 19.1 16.875 19.1C18.9141 19.1 19.7089 21.9192 20.5504 24.9033C21.4937 28.2473 22.5624 32.0375 25.875 32.0375C31.1743 32.0375 33.75 27.0695 33.75 16.85C33.75 8.33372 26.3374 1.66247 16.875 1.66247C14.2751 1.66247 11.8058 2.15916 9.52256 3.12722C9.18506 2.74472 8.919 2.47359 8.83519 2.38978C8.61525 2.16984 8.25975 2.16984 8.03981 2.38978C7.83225 2.59734 6.5295 3.92653 5.71781 5.34234C5.29087 5.67141 4.88419 6.02184 4.5 6.38972V3.91247C4.5 3.82528 4.47975 3.73866 4.44094 3.66103L2.75344 0.286031C2.56219 -0.0953437 1.93837 -0.0953437 1.74712 0.286031L0.059625 3.66103C0.02025 3.73866 0 3.82528 0 3.91247V33.1625C0 33.473 0.251438 33.725 0.5625 33.725ZM1.125 32.6V30.9125H3.375V32.6H1.125ZM3.375 4.47497V29.7875H1.125V4.47497H3.375ZM8.4375 32.6C8.08031 32.6 7.77825 32.3328 7.73606 31.9778L6.13631 18.785C5.82581 16.2228 6.16838 13.6173 7.12575 11.225H9.74925C10.7066 13.6173 11.0492 16.2233 10.7387 18.785L9.13894 31.9784C9.09675 32.3328 8.79469 32.6 8.4375 32.6ZM16.875 2.78747C25.7068 2.78747 32.625 8.96428 32.625 16.85C32.625 30.9125 27.5445 30.9125 25.875 30.9125C23.4141 30.9125 22.5495 27.8452 21.6332 24.5978C20.7152 21.3421 19.7657 17.975 16.875 17.975C13.9826 17.975 13.0331 21.3432 12.114 24.6012C11.6932 26.093 11.2607 27.6112 10.6594 28.7868L11.8558 18.9205C12.1922 16.139 11.8063 13.3113 10.7505 10.7187C11.0801 10.1557 11.8125 8.74266 11.8125 7.28747C11.8125 6.28059 11.0346 5.02566 10.2701 4.03341C12.3277 3.20878 14.5446 2.78747 16.875 2.78747ZM8.4375 3.60141C9.43594 4.68816 10.6875 6.35709 10.6875 7.28747C10.6875 8.42428 10.0946 9.59878 9.80831 10.1H7.06669C6.77981 9.60047 6.1875 8.42991 6.1875 7.28747C6.1875 6.35934 7.43962 4.68872 8.4375 3.60141ZM5.067 7.41178C5.10694 8.82253 5.80387 10.172 6.1245 10.7193C5.06869 13.3118 4.68281 16.139 5.01919 18.9211L6.45244 30.7432C5.72006 30.5665 5.07713 30.2347 4.5 29.752V8.01534C4.68169 7.80891 4.87125 7.60809 5.067 7.41178ZM2.25 1.79522L3.02737 3.34997H1.47263L2.25 1.79522Z" fill="white" fill-opacity="0.83"/>
<path d="M4.5 31.1414L8.65419 24.3045L-3.5 16.9194V31.1414H4.5ZM6.59587 31.9244L14.5366 30.9525L13.8162 25.0666L7.9752 24.0442L6.59587 31.9244ZM6.61894 32.1128L14.5614 31.1553L14.5606 31.1481L14.5597 31.141L6.61894 32.1128ZM10.2561 32.1134L2.3143 31.1499L2.31365 31.1553L10.2561 32.1134ZM10.386 31.0424L4.97822 25.147L2.8002 27.1449L2.44424 30.0789L10.386 31.0424ZM13.1968 24.9067L20.8965 27.0779L20.8966 27.0778L13.1968 24.9067ZM20.5504 24.9033L12.8507 27.0746L12.8508 27.0752L20.5504 24.9033ZM9.52256 3.12722L3.52386 8.42019L7.33798 12.7429L12.6454 10.4925L9.52256 3.12722ZM5.71781 5.34234L10.6015 11.6787L11.8649 10.705L12.6582 9.32125L5.71781 5.34234ZM4.5 6.38972H-3.5V25.1262L10.0329 12.1679L4.5 6.38972ZM4.44094 3.66103L11.5964 0.0833226L4.44094 3.66103ZM2.75344 0.286031L9.90886 -3.29168L9.90463 -3.30011L2.75344 0.286031ZM1.74712 0.286031L-5.40407 -3.30012L-5.40829 -3.29168L1.74712 0.286031ZM0.059625 3.66103L7.19424 7.28004L7.2047 7.25942L7.21504 7.23874L0.059625 3.66103ZM1.125 32.6H-6.875V40.6H1.125V32.6ZM1.125 30.9125V22.9125H-6.875V30.9125H1.125ZM3.375 30.9125H11.375V22.9125H3.375V30.9125ZM3.375 32.6V40.6H11.375V32.6H3.375ZM3.375 4.47497H11.375V-3.52503H3.375V4.47497ZM3.375 29.7875V37.7875H11.375V29.7875H3.375ZM1.125 29.7875H-6.875V37.7875H1.125V29.7875ZM1.125 4.47497V-3.52503H-6.875V4.47497H1.125ZM7.73606 31.9778L15.6801 31.0336L15.679 31.0242L15.6779 31.0148L7.73606 31.9778ZM6.13631 18.785L-1.80558 19.7474L-1.80551 19.748L6.13631 18.785ZM7.12575 11.225V3.22497H1.71043L-0.301581 8.25264L7.12575 11.225ZM9.74925 11.225L17.1766 8.25264L15.1646 3.22497H9.74925V11.225ZM10.7387 18.785L18.6805 19.7479L18.6806 19.7476L10.7387 18.785ZM9.13894 31.9784L1.19711 31.0154L1.19606 31.0241L1.19503 31.0327L9.13894 31.9784ZM21.6332 24.5978L13.9334 26.7689L13.9338 26.7704L21.6332 24.5978ZM12.114 24.6012L4.41453 22.4291L4.4144 22.4295L12.114 24.6012ZM10.6594 28.7868L2.71756 27.8237L17.7818 32.4298L10.6594 28.7868ZM11.8558 18.9205L19.7976 19.8836L19.7979 19.881L11.8558 18.9205ZM10.7505 10.7187L3.84653 6.67703L1.85323 10.082L3.34134 13.7361L10.7505 10.7187ZM10.2701 4.03341L7.2941 -3.39245L-2.51961 0.540548L3.93274 8.91578L10.2701 4.03341ZM8.4375 3.60141L14.3287 -1.81102L8.43432 -8.22671L2.54343 -1.80784L8.4375 3.60141ZM9.80831 10.1V18.1H14.4515L16.7547 14.0682L9.80831 10.1ZM7.06669 10.1L0.129412 14.0842L2.43576 18.1H7.06669V10.1ZM6.1245 10.7193L13.5337 13.7366L15.0223 10.0812L13.0273 6.67553L6.1245 10.7193ZM5.01919 18.9211L-2.92297 19.8813L-2.92266 19.8839L5.01919 18.9211ZM6.45244 30.7432L4.57687 38.5202L15.7815 41.2224L14.3943 29.7803L6.45244 30.7432ZM4.5 29.752H-3.5V33.4906L-0.632057 35.889L4.5 29.752ZM4.5 8.01534L-1.50538 2.72995L-3.5 4.99628V8.01534H4.5ZM2.25 1.79522L9.40542 -1.78249L2.25 -16.0933L-4.90542 -1.78249L2.25 1.79522ZM3.02737 3.34997V11.35H15.9716L10.1828 -0.22774L3.02737 3.34997ZM1.47263 3.34997L-5.68279 -0.22774L-11.4716 11.35H1.47263V3.34997ZM0.5625 41.725H3.9375V25.725H0.5625V41.725ZM3.9375 41.725C8.67205 41.725 12.5 37.886 12.5 33.1625H-3.5C-3.5 29.0599 -0.174925 25.725 3.9375 25.725V41.725ZM12.5 33.1625V31.1414H-3.5V33.1625H12.5ZM0.345805 37.9783C1.84468 38.889 3.48689 39.5018 5.21655 39.8046L7.9752 24.0442C8.18161 24.0803 8.42545 24.1656 8.65419 24.3045L0.345805 37.9783ZM-1.34487 32.8963L-1.32181 33.0847L14.5597 31.141L14.5366 30.9525L-1.34487 32.8963ZM-1.32355 33.0704C-0.727984 38.0103 3.46563 41.725 8.4375 41.725V25.725C11.5576 25.725 14.1875 28.0537 14.5614 31.1553L-1.32355 33.0704ZM8.4375 41.725C13.4079 41.725 17.6025 38.0118 18.1985 33.0716L2.31365 31.1553C2.688 28.0522 5.31881 25.725 8.4375 25.725V41.725ZM18.1978 33.0769L18.3278 32.0059L2.44424 30.0789L2.3143 31.1499L18.1978 33.0769ZM15.7938 36.9378C17.7747 35.1207 18.8584 32.9294 19.4846 31.3997C20.1255 29.8344 20.5842 28.1857 20.8965 27.0779L5.49709 22.7354C5.32683 23.3392 5.18621 23.8336 5.04218 24.2944C4.89971 24.7503 4.78048 25.0861 4.6774 25.3379C4.57291 25.5931 4.5183 25.6793 4.53131 25.6582C4.54531 25.6355 4.67872 25.4217 4.97822 25.147L15.7938 36.9378ZM20.8966 27.0778C21.1169 26.2963 21.278 25.7299 21.44 25.2372C21.6048 24.7357 21.6917 24.5602 21.6884 24.5665C21.6792 24.5841 21.6115 24.7137 21.4685 24.9071C21.3252 25.1008 21.0681 25.4105 20.6682 25.7424C20.2572 26.0837 19.703 26.4414 19.0033 26.7068C18.2937 26.9761 17.566 27.1 16.875 27.1V11.1C11.263 11.1 8.47781 15.2857 7.48485 17.2004C6.46821 19.1607 5.84391 21.5054 5.49706 22.7355L20.8966 27.0778ZM16.875 27.1C16.1837 27.1 15.4557 26.976 14.7457 26.7066C14.0457 26.441 13.4913 26.083 13.0801 25.7415C12.6801 25.4094 12.4229 25.0995 12.2795 24.9056C12.1364 24.7121 12.0687 24.5824 12.0595 24.5646C12.0561 24.5581 12.1428 24.7333 12.3075 25.2347C12.4694 25.7273 12.6303 26.2932 12.8507 27.0746L28.2501 22.732C27.9038 21.5039 27.2799 19.1599 26.2641 17.2006C25.272 15.287 22.4876 11.1 16.875 11.1V27.1ZM12.8508 27.0752C13.2459 28.4756 14.0007 31.3405 15.4197 33.7652C17.0428 36.5386 20.3459 40.0375 25.875 40.0375V24.0375C26.2362 24.0375 26.6745 24.0912 27.1478 24.241C27.6212 24.3908 28.0346 24.6067 28.3738 24.8447C29.0223 25.2998 29.2569 25.7319 29.2287 25.6836C29.2013 25.6367 29.0759 25.3964 28.8777 24.8215C28.6802 24.2486 28.4969 23.607 28.2499 22.7314L12.8508 27.0752ZM25.875 40.0375C28.4986 40.0375 31.1841 39.4051 33.6241 37.8585C36.0362 36.3295 37.7356 34.2077 38.9018 31.9585C41.1022 27.7148 41.75 22.3579 41.75 16.85H25.75C25.75 21.5616 25.1099 23.7984 24.6977 24.5936C24.5576 24.8638 24.6194 24.6227 25.0581 24.3446C25.5248 24.0488 25.9011 24.0375 25.875 24.0375V40.0375ZM41.75 16.85C41.75 3.14341 29.9419 -6.33753 16.875 -6.33753V9.66247C22.7328 9.66247 25.75 13.524 25.75 16.85H41.75ZM16.875 -6.33753C13.2395 -6.33753 9.70454 -5.63933 6.3997 -4.23809L12.6454 10.4925C13.907 9.95764 15.3108 9.66247 16.875 9.66247V-6.33753ZM15.5213 -2.16575C15.0527 -2.6968 14.6688 -3.09028 14.492 -3.26707L3.17833 8.04664C3.16916 8.03747 3.31743 8.18624 3.52386 8.42019L15.5213 -2.16575ZM14.492 -3.26707C11.1479 -6.6112 5.72709 -6.6112 2.38296 -3.26707L13.6967 8.04664C10.7924 10.9509 6.08259 10.9509 3.17833 8.04664L14.492 -3.26707ZM2.38296 -3.26707C2.1219 -3.00601 0.156588 -1.04213 -1.22253 1.36344L12.6582 9.32125C12.6777 9.28713 12.7366 9.19198 12.8474 9.04065C12.9544 8.8946 13.0792 8.73788 13.2112 8.58194C13.4807 8.26366 13.6971 8.04617 13.6967 8.04664L2.38296 -3.26707ZM0.834077 -0.99399C0.177981 -0.488304 -0.445145 0.0487696 -1.03285 0.611524L10.0329 12.1679C10.2135 11.9949 10.4038 11.8311 10.6015 11.6787L0.834077 -0.99399ZM12.5 6.38972V3.91247H-3.5V6.38972H12.5ZM12.5 3.91247C12.5 2.59853 12.1974 1.28531 11.5964 0.0833228L-2.71448 7.23874C-3.23785 6.192 -3.5 5.05203 -3.5 3.91247H12.5ZM11.5964 0.0833226L9.90885 -3.29168L-4.40198 3.86374L-2.71448 7.23874L11.5964 0.0833226ZM9.90463 -3.30011C8.14052 -6.81795 4.71665 -8 2.25028 -8C-0.216091 -8 -3.63996 -6.81795 -5.40407 -3.30011L8.89832 3.87218C7.32546 7.00864 4.30912 8 2.25028 8C0.191441 8 -2.8249 7.00864 -4.39776 3.87218L9.90463 -3.30011ZM-5.40829 -3.29168L-7.09579 0.0833231L7.21504 7.23874L8.90254 3.86374L-5.40829 -3.29168ZM-7.07499 0.0420224C-7.69657 1.26742 -8 2.59743 -8 3.91247H8C8 5.05313 7.73707 6.2099 7.19424 7.28004L-7.07499 0.0420224ZM-8 3.91247V33.1625H8V3.91247H-8ZM-8 33.1625C-8 37.886 -4.17205 41.725 0.5625 41.725V25.725C4.67493 25.725 8 29.0599 8 33.1625H-8ZM9.125 32.6V30.9125H-6.875V32.6H9.125ZM1.125 38.9125H3.375V22.9125H1.125V38.9125ZM-4.625 30.9125V32.6H11.375V30.9125H-4.625ZM3.375 24.6H1.125V40.6H3.375V24.6ZM-4.625 4.47497V29.7875H11.375V4.47497H-4.625ZM3.375 21.7875H1.125V37.7875H3.375V21.7875ZM9.125 29.7875V4.47497H-6.875V29.7875H9.125ZM1.125 12.475H3.375V-3.52503H1.125V12.475ZM8.4375 24.6C12.1176 24.6 15.2421 27.3482 15.6801 31.0336L-0.208019 32.9221C0.314396 37.3173 4.04301 40.6 8.4375 40.6V24.6ZM15.6779 31.0148L14.0781 17.822L-1.80551 19.748L-0.205763 32.9409L15.6779 31.0148ZM14.0782 17.8225C13.9297 16.5971 14.0939 15.3446 14.5531 14.1973L-0.301581 8.25264C-1.75718 11.8899 -2.27808 15.8485 -1.80558 19.7474L14.0782 17.8225ZM7.12575 19.225H9.74925V3.22497H7.12575V19.225ZM2.32192 14.1973C2.78107 15.3446 2.94527 16.5976 2.79682 17.8223L18.6806 19.7476C19.1531 15.8491 18.6322 11.8899 17.1766 8.25264L2.32192 14.1973ZM2.79686 17.822L1.19711 31.0154L17.0808 32.9414L18.6805 19.7479L2.79686 17.822ZM1.19503 31.0327C1.63413 27.3443 4.7611 24.6 8.4375 24.6V40.6C12.8283 40.6 16.5594 37.3213 17.0828 32.9241L1.19503 31.0327ZM16.875 10.7875C22.1652 10.7875 24.625 14.211 24.625 16.85H40.625C40.625 3.71756 29.2484 -5.21253 16.875 -5.21253V10.7875ZM24.625 16.85C24.625 19.9227 24.3434 21.8605 24.0514 23.0101C23.7612 24.1522 23.5217 24.281 23.7543 24.0045C24.0585 23.6429 24.6012 23.2567 25.2721 23.0493C25.8097 22.8832 26.2395 22.9125 25.875 22.9125V38.9125C27.2424 38.9125 32.1223 38.9115 35.9978 34.3048C39.3242 30.3509 40.625 24.4632 40.625 16.85H24.625ZM25.875 22.9125C26.4157 22.9125 27.0196 22.9997 27.6377 23.2134C28.2527 23.4261 28.7658 23.7236 29.1691 24.0327C29.5615 24.3334 29.821 24.6222 29.9724 24.814C30.1218 25.0033 30.1922 25.1313 30.2015 25.1485C30.2031 25.1514 30.1052 24.9619 29.925 24.422C29.7472 23.8891 29.5727 23.2764 29.3325 22.4253L13.9338 26.7704C14.3114 28.1086 14.9889 30.6674 16.1482 32.7973C17.4216 35.137 20.4017 38.9125 25.875 38.9125V22.9125ZM29.333 22.4268C28.9541 21.0831 28.241 18.3738 26.9401 16.0969C25.4475 13.4845 22.2904 9.97497 16.875 9.97497V25.975C16.4463 25.975 15.9435 25.9103 15.4104 25.738C14.8775 25.5657 14.416 25.3186 14.0392 25.0476C13.6717 24.7834 13.4228 24.5245 13.2727 24.3451C13.1255 24.1691 13.0565 24.0496 13.0476 24.0341C13.0383 24.0178 13.0658 24.064 13.1227 24.1982C13.1791 24.331 13.2499 24.5155 13.3356 24.7672C13.5181 25.3035 13.6925 25.9146 13.9334 26.7689L29.333 22.4268ZM16.875 9.97497C11.4593 9.97497 8.3016 13.4842 6.80839 16.0976C5.50725 18.3748 4.79367 21.0851 4.41453 22.4291L19.8135 26.7733C20.0547 25.9181 20.2293 25.3065 20.4121 24.7695C20.4979 24.5175 20.5688 24.3327 20.6253 24.1997C20.6824 24.0653 20.7099 24.0189 20.7007 24.0351C20.6919 24.0505 20.623 24.1699 20.4758 24.3458C20.3258 24.5251 20.0769 24.784 19.7095 25.0481C19.3327 25.319 18.8713 25.5659 18.3386 25.7381C17.8058 25.9104 17.3032 25.975 16.875 25.975V9.97497ZM4.4144 22.4295C3.93579 24.1264 3.7053 24.8147 3.53697 25.1438L17.7818 32.4298C18.8161 30.4076 19.4507 28.0595 19.8136 26.7729L4.4144 22.4295ZM18.6012 29.7499L19.7976 19.8836L3.91399 17.9575L2.71756 27.8237L18.6012 29.7499ZM19.7979 19.881C20.2991 15.7368 19.7233 11.5409 18.1597 7.70136L3.34134 13.7361C3.88934 15.0817 4.08526 16.5412 3.91367 17.9601L19.7979 19.881ZM17.6545 14.7604C18.1172 13.97 19.8125 10.9912 19.8125 7.28747H3.8125C3.8125 6.98945 3.84883 6.78361 3.86906 6.68883C3.88983 6.59149 3.90723 6.54803 3.90322 6.55884C3.90022 6.56696 3.89031 6.59138 3.87356 6.6255C3.85766 6.65792 3.84586 6.67819 3.84653 6.67703L17.6545 14.7604ZM19.8125 7.28747C19.8125 4.91776 18.9631 3.00824 18.4414 1.99442C17.8495 0.844149 17.1531 -0.140798 16.6075 -0.848966L3.93274 8.91578C4.1516 9.19986 4.22642 9.33851 4.21457 9.31548C4.20335 9.29368 4.12194 9.13513 4.03542 8.85508C3.95262 8.58702 3.8125 8.03949 3.8125 7.28747H19.8125ZM13.2461 11.4593C14.3196 11.0291 15.5225 10.7875 16.875 10.7875V-5.21253C13.5666 -5.21253 10.3359 -4.61151 7.2941 -3.39245L13.2461 11.4593ZM2.54635 9.01383C2.8359 9.32899 3.10396 9.67125 3.24128 9.88126C3.31113 9.98808 3.24935 9.91247 3.14543 9.67462C3.08992 9.54754 2.98973 9.30011 2.89759 8.95164C2.80913 8.61709 2.6875 8.03847 2.6875 7.28747H18.6875C18.6875 5.45214 18.1235 3.99284 17.8073 3.26907C17.4375 2.42266 17.0004 1.68745 16.6325 1.12489C15.8945 -0.00384665 15.0375 -1.03943 14.3287 -1.81102L2.54635 9.01383ZM2.6875 7.28747C2.6875 6.88958 2.7377 6.59974 2.77102 6.44565C2.80534 6.28689 2.83956 6.19071 2.85046 6.16119C2.86266 6.12815 2.86801 6.11863 2.86332 6.12833C2.85955 6.13614 2.85727 6.13977 2.86189 6.1317L16.7547 14.0682C17.1253 13.4196 18.6875 10.6698 18.6875 7.28747H2.6875ZM9.80831 2.09997H7.06669V18.1H9.80831V2.09997ZM14.004 6.11572C14.0043 6.11638 14.0064 6.11534 14.0238 6.16245C14.0356 6.19454 14.0703 6.29224 14.1047 6.45173C14.1381 6.60693 14.1875 6.89437 14.1875 7.28747H-1.8125C-1.8125 10.676 -0.252465 13.4193 0.129412 14.0842L14.004 6.11572ZM14.1875 7.28747C14.1875 8.04091 14.0652 8.62104 13.9766 8.95541C13.8843 9.30396 13.784 9.55126 13.7287 9.67786C13.6251 9.91481 13.5638 9.98957 13.6342 9.88184C13.7726 9.6702 14.0417 9.32648 14.3316 9.01065L2.54343 -1.80784C1.83541 -1.03636 0.979513 -0.00110207 0.242354 1.12642C-0.124981 1.68828 -0.561644 2.42268 -0.931208 3.26789C-1.24655 3.98909 -1.8125 5.44978 -1.8125 7.28747H14.1875ZM-2.9298 7.63817C-2.83054 11.1442 -1.25573 13.948 -0.778258 14.763L13.0273 6.67553C13.0312 6.68228 13.0215 6.66593 13.0067 6.63585C12.9913 6.60456 12.981 6.58009 12.9768 6.56894C12.9718 6.5555 12.9857 6.58893 13.0041 6.6698C13.022 6.74822 13.0564 6.92491 13.0638 7.1854L-2.9298 7.63817ZM-1.28466 7.70193C-2.84828 11.5414 -3.42409 15.7367 -2.92297 19.8813L12.9613 17.9608C12.7897 16.5413 12.9857 15.0823 13.5337 13.7366L-1.28466 7.70193ZM-2.92266 19.8839L-1.48941 31.706L14.3943 29.7803L12.961 17.9583L-2.92266 19.8839ZM8.328 22.9661C8.56123 23.0224 8.80823 23.1111 9.05121 23.235C9.29279 23.3581 9.48706 23.4938 9.63206 23.6151L-0.632057 35.889C0.848539 37.1271 2.59595 38.0425 4.57687 38.5202L8.328 22.9661ZM12.5 29.752V8.01534H-3.5V29.752H12.5ZM10.5054 13.3007C10.5642 13.2339 10.6384 13.1544 10.732 13.0605L-0.597964 1.76305C-0.89588 2.06182 -1.20079 2.38386 -1.50538 2.72995L10.5054 13.3007ZM-4.90542 5.37293L-4.12804 6.92768L10.1828 -0.22774L9.40542 -1.78249L-4.90542 5.37293ZM3.02737 -4.65003H1.47263V11.35H3.02737V-4.65003ZM8.62804 6.92768L9.40542 5.37293L-4.90542 -1.78249L-5.68279 -0.22774L8.62804 6.92768Z" fill="white" fill-opacity="0.83" mask="url(#path-7-inside-4)"/>
</svg>
