<svg width="25" height="34" viewBox="0 0 25 34" fill="none" xmlns="http://www.w3.org/2000/svg">
<path d="M24.9282 6.23333C24.9296 6.0838 24.8717 5.9398 24.7673 5.8327L19.1006 0.166033C18.994 0.0609167 18.8497 0.002975 18.7 0.0051V0H1.7C0.761104 0 0 0.761104 0 1.7V32.3C0 33.2389 0.761104 34 1.7 34H23.2333C24.1722 34 24.9333 33.2389 24.9333 32.3V6.23333H24.9282ZM19.2667 1.9346L22.9987 5.66667H19.8333C19.5204 5.66667 19.2667 5.41294 19.2667 5.1V1.9346ZM23.8 32.3C23.8 32.6129 23.5463 32.8667 23.2333 32.8667H1.7C1.38706 32.8667 1.13333 32.6129 1.13333 32.3V1.7C1.13333 1.38706 1.38706 1.13333 1.7 1.13333H18.1333V5.1C18.1333 6.0389 18.8944 6.8 19.8333 6.8H23.8V32.3Z" fill="white" fill-opacity="0.83"/>
<path d="M24.4283 6.22883L24.4237 6.73333H24.4333V32.3C24.4333 32.9628 23.8961 33.5 23.2333 33.5H1.7C1.03725 33.5 0.5 32.9628 0.5 32.3V1.7C0.5 1.03725 1.03725 0.5 1.7 0.5H18.2V0.512249L18.7071 0.50505C18.7228 0.504827 18.7378 0.510792 18.7489 0.521439C18.7491 0.521645 18.7494 0.521852 18.7496 0.522061L24.4104 6.1829C24.4221 6.19546 24.4284 6.21192 24.4283 6.22883ZM19.6202 1.58105L18.7667 0.727493V1.9346V5.1C18.7667 5.68908 19.2442 6.16667 19.8333 6.16667H22.9987H24.2058L23.3523 5.31311L19.6202 1.58105ZM18.6333 1.13333V0.633333H18.1333H1.7C1.11092 0.633333 0.633333 1.11092 0.633333 1.7V32.3C0.633333 32.8891 1.11092 33.3667 1.7 33.3667H23.2333C23.8224 33.3667 24.3 32.8891 24.3 32.3V6.8V6.3H23.8H19.8333C19.1706 6.3 18.6333 5.76275 18.6333 5.1V1.13333Z" stroke="white" stroke-opacity="0.83"/>
<path d="M5.66668 15.3004C4.72778 15.3004 3.96667 16.0615 3.96667 17.0004C3.96667 17.9393 4.72778 18.7004 5.66668 18.7004C6.60557 18.7004 7.36668 17.9393 7.36668 17.0004C7.36668 16.0615 6.60557 15.3004 5.66668 15.3004ZM5.66668 17.5671C5.35373 17.5671 5.10001 17.3134 5.10001 17.0004C5.10001 16.6875 5.35373 16.4337 5.66668 16.4337C5.97962 16.4337 6.23334 16.6875 6.23334 17.0004C6.23334 17.3134 5.97962 17.5671 5.66668 17.5671Z" fill="white" fill-opacity="0.83"/>
<path d="M4.46667 17.0004C4.46667 16.3377 5.00392 15.8004 5.66668 15.8004C6.32943 15.8004 6.86668 16.3377 6.86668 17.0004C6.86668 17.6632 6.32943 18.2004 5.66668 18.2004C5.00392 18.2004 4.46667 17.6632 4.46667 17.0004ZM4.60001 17.0004C4.60001 17.5895 5.07759 18.0671 5.66668 18.0671C6.25576 18.0671 6.73334 17.5895 6.73334 17.0004C6.73334 16.4113 6.25576 15.9337 5.66668 15.9337C5.07759 15.9337 4.60001 16.4113 4.60001 17.0004Z" stroke="white" stroke-opacity="0.83"/>
<path d="M20.9667 16.4335H9.63336V17.5668H20.9667V16.4335Z" fill="white" fill-opacity="0.83"/>
<path d="M10.1334 17.0668V16.9335H20.4667V17.0668H10.1334Z" stroke="white" stroke-opacity="0.83"/>
<path d="M5.66668 9.63342C4.72778 9.63342 3.96667 10.3945 3.96667 11.3334C3.96667 12.2723 4.72778 13.0334 5.66668 13.0334C6.60557 13.0334 7.36668 12.2723 7.36668 11.3334C7.36668 10.3945 6.60557 9.63342 5.66668 9.63342ZM5.66668 11.9001C5.35373 11.9001 5.10001 11.6464 5.10001 11.3334C5.10001 11.0205 5.35373 10.7668 5.66668 10.7668C5.97962 10.7668 6.23334 11.0205 6.23334 11.3334C6.23334 11.6464 5.97962 11.9001 5.66668 11.9001Z" fill="white" fill-opacity="0.83"/>
<path d="M4.46667 11.3334C4.46667 10.6707 5.00392 10.1334 5.66668 10.1334C6.32943 10.1334 6.86668 10.6707 6.86668 11.3334C6.86668 11.9962 6.32943 12.5334 5.66668 12.5334C5.00392 12.5334 4.46667 11.9962 4.46667 11.3334ZM4.60001 11.3334C4.60001 11.9225 5.07759 12.4001 5.66668 12.4001C6.25576 12.4001 6.73334 11.9225 6.73334 11.3334C6.73334 10.7443 6.25576 10.2668 5.66668 10.2668C5.07759 10.2668 4.60001 10.7443 4.60001 11.3334Z" stroke="white" stroke-opacity="0.83"/>
<path d="M20.9667 10.7668H9.63336V11.9002H20.9667V10.7668Z" fill="white" fill-opacity="0.83"/>
<path d="M10.1334 11.4002V11.2668H20.4667V11.4002H10.1334Z" stroke="white" stroke-opacity="0.83"/>
<path d="M5.66668 20.9663C4.72778 20.9663 3.96667 21.7274 3.96667 22.6663C3.96667 23.6052 4.72778 24.3663 5.66668 24.3663C6.60557 24.3663 7.36668 23.6052 7.36668 22.6663C7.36668 21.7274 6.60557 20.9663 5.66668 20.9663ZM5.66668 23.233C5.35373 23.233 5.10001 22.9793 5.10001 22.6663C5.10001 22.3534 5.35373 22.0996 5.66668 22.0996C5.97962 22.0996 6.23334 22.3534 6.23334 22.6663C6.23334 22.9793 5.97962 23.233 5.66668 23.233Z" fill="white" fill-opacity="0.83"/>
<path d="M4.46667 22.6663C4.46667 22.0036 5.00392 21.4663 5.66668 21.4663C6.32943 21.4663 6.86668 22.0036 6.86668 22.6663C6.86668 23.3291 6.32943 23.8663 5.66668 23.8663C5.00392 23.8663 4.46667 23.3291 4.46667 22.6663ZM4.60001 22.6663C4.60001 23.2554 5.07759 23.733 5.66668 23.733C6.25576 23.733 6.73334 23.2554 6.73334 22.6663C6.73334 22.0772 6.25576 21.5996 5.66668 21.5996C5.07759 21.5996 4.60001 22.0772 4.60001 22.6663Z" stroke="white" stroke-opacity="0.83"/>
<path d="M20.9667 22.0997H9.63336V23.2331H20.9667V22.0997Z" fill="white" fill-opacity="0.83"/>
<path d="M10.1334 22.7331V22.5997H20.4667V22.7331H10.1334Z" stroke="white" stroke-opacity="0.83"/>
<path d="M5.66668 26.6335C4.72778 26.6335 3.96667 27.3946 3.96667 28.3335C3.96667 29.2724 4.72778 30.0335 5.66668 30.0335C6.60557 30.0335 7.36668 29.2724 7.36668 28.3335C7.36668 27.3946 6.60557 26.6335 5.66668 26.6335ZM5.66668 28.9002C5.35373 28.9002 5.10001 28.6465 5.10001 28.3335C5.10001 28.0206 5.35373 27.7669 5.66668 27.7669C5.97962 27.7669 6.23334 28.0206 6.23334 28.3335C6.23334 28.6465 5.97962 28.9002 5.66668 28.9002Z" fill="white" fill-opacity="0.83"/>
<path d="M4.46667 28.3335C4.46667 27.6708 5.00392 27.1335 5.66668 27.1335C6.32943 27.1335 6.86668 27.6708 6.86668 28.3335C6.86668 28.9963 6.32943 29.5335 5.66668 29.5335C5.00392 29.5335 4.46667 28.9963 4.46667 28.3335ZM4.60001 28.3335C4.60001 28.9226 5.07759 29.4002 5.66668 29.4002C6.25576 29.4002 6.73334 28.9226 6.73334 28.3335C6.73334 27.7445 6.25576 27.2669 5.66668 27.2669C5.07759 27.2669 4.60001 27.7445 4.60001 28.3335Z" stroke="white" stroke-opacity="0.83"/>
<path d="M20.9667 27.7668H9.63336V28.9002H20.9667V27.7668Z" fill="white" fill-opacity="0.83"/>
<path d="M10.1334 28.4002V28.2668H20.4667V28.4002H10.1334Z" stroke="white" stroke-opacity="0.83"/>
</svg>
