<svg width="47" height="47" viewBox="0 0 47 47" fill="none" xmlns="http://www.w3.org/2000/svg">
<path d="M3.71418 28.7635C3.89347 28.9428 4.12834 29.0325 4.36321 29.0325C4.59808 29.0325 4.83295 28.9428 5.01224 28.7635L18.9065 14.8696L27.3181 23.2815C27.4902 23.4537 27.724 23.5505 27.9671 23.5505C28.2106 23.5505 28.444 23.4537 28.6165 23.2815L33.4954 18.4023C33.8539 18.0441 33.8539 17.4629 33.4954 17.1043C33.1368 16.7457 32.5559 16.7457 32.1973 17.1043L27.9671 21.3341L19.5555 12.9222C19.3831 12.75 19.1496 12.6532 18.9065 12.6532C18.663 12.6532 18.4296 12.75 18.2571 12.9222L4.36321 26.8164L2.21603 24.6693L18.9065 7.97912L27.3185 16.3911C27.4906 16.5632 27.724 16.66 27.9675 16.66C28.211 16.66 28.4444 16.5632 28.6165 16.3911L39.7024 5.30483C40.061 4.9466 40.061 4.36535 39.7024 4.00676L39.3643 3.66826L44.7835 2.21637L43.3316 7.6356L43.1476 7.45201C42.9755 7.27989 42.7421 7.18307 42.4986 7.18307C42.2551 7.18307 42.0217 7.27989 41.8496 7.45201L37.3903 11.9113C37.0317 12.2699 37.0317 12.8512 37.3903 13.2097C37.7488 13.568 38.3297 13.568 38.6887 13.2097L42.499 9.39946L43.1577 10.0582C43.3897 10.2898 43.7275 10.3809 44.0444 10.2959C44.3611 10.2109 44.6085 9.9635 44.6935 9.64688L46.9687 1.15569C47.0537 0.838706 46.9629 0.500923 46.7309 0.268921C46.4993 0.0369197 46.1611 -0.0534425 45.8445 0.0311825L37.3533 2.30638C37.0367 2.39136 36.7893 2.63878 36.7043 2.95577C36.6193 3.27239 36.71 3.61053 36.9417 3.84218L37.7553 4.6558L27.9675 14.4436L19.5555 6.03167C19.1973 5.67345 18.6161 5.67309 18.2575 6.03167L0.268935 24.0202C-0.0896451 24.3788 -0.0896451 24.9601 0.268935 25.3186L3.71418 28.7635Z" fill="#E62FE6" fill-opacity="0.5"/>
<path d="M4.06771 28.41L4.06773 28.41C4.14956 28.4918 4.25562 28.5325 4.36321 28.5325C4.47079 28.5325 4.57686 28.4918 4.65869 28.41L5.01224 28.7635L4.65869 28.41L18.553 14.516L18.9065 14.1625L19.2601 14.5161L27.6717 22.928C27.75 23.0064 27.8567 23.0505 27.9671 23.0505C28.0776 23.0505 28.184 23.0066 28.263 22.928L4.06771 28.41ZM4.06771 28.41L0.622488 24.9651C0.622482 24.9651 0.622476 24.9651 0.62247 24.9651C0.459169 24.8017 0.459176 24.5371 0.622488 24.3738L0.270065 24.0213L0.622488 24.3738L18.611 6.38522C18.7742 6.22203 19.0389 6.22213 19.202 6.38522L27.6139 14.7972L27.9675 15.1507L28.321 14.7972L38.1089 5.00935L38.4624 4.6558L38.1089 4.30224L37.2952 3.48863C37.1898 3.38324 37.1486 3.22926 37.1872 3.08538L37.1872 3.08524M4.06771 28.41L37.1872 3.08524M46.4857 1.02628L46.4857 1.02621C46.5244 0.882038 46.4832 0.728326 46.3774 0.622475L46.3771 0.622201C46.2721 0.517033 46.1182 0.475603 45.9737 0.514208C45.9737 0.514214 45.9736 0.51422 45.9736 0.514226L37.4829 2.78928L46.4857 1.02628ZM46.4857 1.02628L44.2106 9.51726L46.4857 1.02628ZM37.1872 3.08524C37.226 2.94072 37.3387 2.82808 37.4827 2.78934L37.1872 3.08524ZM33.1418 18.0488L28.2633 22.9276L18.6107 13.2757C18.6897 13.1971 18.7961 13.1532 18.9065 13.1532C19.0165 13.1532 19.123 13.197 19.2021 13.2758C19.2022 13.2759 19.2023 13.276 19.2024 13.2761L27.6136 21.6876L27.9671 22.0412L28.3207 21.6877L32.5508 17.4578L32.2104 17.1174L32.5509 17.4578C32.7142 17.2945 32.9785 17.2945 33.1418 17.4578C33.3052 17.6212 33.305 17.8858 33.142 18.0486L33.1418 18.0488ZM4.71676 27.17L18.6103 13.2761L43.511 9.70434L42.8525 9.0459L42.499 8.69235L42.1454 9.0459L38.3355 12.8558C38.3354 12.8559 38.3353 12.856 38.3352 12.8561C38.3352 12.8562 38.3351 12.8562 38.3351 12.8562C38.1713 13.0193 37.907 13.019 37.7438 12.8562C37.5805 12.6929 37.5805 12.4282 37.7438 12.2649L42.2031 7.80556C42.2816 7.7271 42.3879 7.68307 42.4986 7.68307C42.6093 7.68307 42.7156 7.7271 42.7941 7.80556L42.7944 7.8059L42.9784 7.9895L43.5907 8.6006L43.8146 7.76499L45.2664 2.34577L45.4905 1.50931L44.6541 1.73341L39.2349 3.1853L38.3988 3.40929L39.0105 4.02163L39.3487 4.36013L39.3488 4.36032C39.5123 4.52373 39.512 4.78827 39.349 4.9511L39.3488 4.95128L28.263 16.0375C28.1845 16.116 28.0782 16.16 27.9675 16.16C27.8568 16.16 27.7505 16.116 27.672 16.0375L19.2601 7.62557L18.9065 7.27202L18.553 7.62556L1.86248 24.3157L1.50892 24.6692L1.86248 25.0228L4.00965 27.17L4.36321 27.5235L4.71676 27.17ZM43.915 9.81296C43.7713 9.85149 43.6174 9.81046 43.5112 9.70462L44.2105 9.51747C44.1718 9.66157 44.0591 9.77423 43.915 9.81296Z" stroke="#E62FE6" stroke-opacity="0.5" stroke-width="0.999998"/>
<path d="M46.0819 45.1639H45.1639V17.4109C45.1639 16.9039 44.753 16.4929 44.246 16.4929H39.1054C38.5983 16.4929 38.1874 16.9039 38.1874 17.4109V45.1639H36.0761V28.3652C36.0761 27.8585 35.6651 27.4472 35.1581 27.4472H30.0175C29.5105 27.4472 29.0995 27.8585 29.0995 28.3652V45.1639H26.9882V33.2304C26.9882 32.7237 26.5773 32.3124 26.0702 32.3124H20.9296C20.4226 32.3124 20.0117 32.7237 20.0117 33.2304V45.1639H17.9003V28.3652C17.9003 27.8585 17.4894 27.4472 16.9824 27.4472H11.8418C11.3347 27.4472 10.9238 27.8585 10.9238 28.3652V45.1639H8.81247V36.7491C8.81247 36.2425 8.40154 35.8312 7.89451 35.8312H2.7539C2.24687 35.8312 1.83593 36.2425 1.83593 36.7491V45.1639H0.917966C0.410933 45.1639 0 45.5752 0 46.0819C0 46.5889 0.410933 46.9999 0.917966 46.9999H46.0819C46.5889 46.9999 46.9999 46.5889 46.9999 46.0819C46.9999 45.5752 46.5889 45.1639 46.0819 45.1639ZM3.67186 45.1639V37.6671H6.97654V45.1639H3.67186ZM12.7597 45.1639V29.2831H16.0644V45.1639H12.7597ZM21.8476 45.1639V34.1483H25.1523V45.1639H21.8476ZM30.9355 45.1639V29.2831H34.2401V45.1639H30.9355ZM40.0233 45.1639V18.3289H43.328V45.1639H40.0233Z" fill="#E62FE6" fill-opacity="0.5"/>
<path d="M44.6639 45.1639V45.6639H45.1639H46.0819C46.3127 45.6639 46.4999 45.8512 46.4999 46.0819C46.4999 46.3128 46.3128 46.4999 46.0819 46.4999H0.917966C0.687076 46.4999 0.499999 46.3128 0.499999 46.0819C0.499999 45.8512 0.687203 45.6639 0.917966 45.6639H1.83593H2.33593V45.1639V36.7491C2.33593 36.5185 2.52313 36.3312 2.7539 36.3312H7.89451C8.12527 36.3312 8.31247 36.5185 8.31247 36.7491V45.1639V45.6639H8.81247H10.9238H11.4238V45.1639V28.3652C11.4238 28.1345 11.611 27.9472 11.8418 27.9472H16.9824C17.2131 27.9472 17.4003 28.1345 17.4003 28.3652V45.1639V45.6639H17.9003H20.0117H20.5117V45.1639V33.2304C20.5117 32.9997 20.6989 32.8124 20.9296 32.8124H26.0702C26.301 32.8124 26.4882 32.9997 26.4882 33.2304V45.1639V45.6639H26.9882H29.0995H29.5995V45.1639V28.3652C29.5995 28.1345 29.7867 27.9472 30.0175 27.9472H35.1581C35.3889 27.9472 35.5761 28.1345 35.5761 28.3652V45.1639V45.6639H36.0761H38.1874H38.6874V45.1639V17.4109C38.6874 17.18 38.8745 16.9929 39.1054 16.9929H44.246C44.4769 16.9929 44.6639 17.18 44.6639 17.4109V45.1639ZM3.17186 45.1639V45.6639H3.67186H6.97654H7.47654V45.1639V37.6671V37.1671H6.97654H3.67186H3.17186V37.6671V45.1639ZM12.2597 45.1639V45.6639H12.7597H16.0644H16.5644V45.1639V29.2831V28.7831H16.0644H12.7597H12.2597V29.2831V45.1639ZM21.3476 45.1639V45.6639H21.8476H25.1523H25.6523V45.1639V34.1483V33.6484H25.1523H21.8476H21.3476V34.1483V45.1639ZM30.4355 45.1639V45.6639H30.9355H34.2401H34.7401V45.1639V29.2831V28.7831H34.2401H30.9355H30.4355V29.2831V45.1639ZM39.5233 45.1639V45.6639H40.0233H43.328H43.828V45.1639V18.3289V17.8289H43.328H40.0233H39.5233V18.3289V45.1639Z" stroke="#E62FE6" stroke-opacity="0.5" stroke-width="0.999998"/>
<path d="M34.7939 14.5075C34.6232 14.6781 34.5249 14.9152 34.5249 15.1565C34.5249 15.3989 34.6232 15.6348 34.7939 15.8055C34.9646 15.9773 35.2012 16.0745 35.4429 16.0745C35.6842 16.0745 35.9209 15.9773 36.0919 15.8055C36.2633 15.6348 36.3609 15.3982 36.3609 15.1565C36.3609 14.9152 36.2633 14.6792 36.0919 14.5075C35.9209 14.3368 35.6842 14.2385 35.4429 14.2385C35.2012 14.2385 34.9646 14.3368 34.7939 14.5075Z" fill="#E62FE6" fill-opacity="0.5"/>
<path d="M35.1485 15.4531L35.1485 15.4531L35.1474 15.452C35.0702 15.3748 35.0249 15.2659 35.0249 15.1565C35.0249 15.0479 35.0704 14.938 35.1474 14.861C35.2245 14.7839 35.334 14.7385 35.4429 14.7385C35.551 14.7385 35.6607 14.7837 35.7384 14.861C35.8162 14.9392 35.8609 15.0481 35.8609 15.1565C35.8609 15.2662 35.8156 15.3751 35.7391 15.4512L35.7391 15.4512L35.7376 15.4527C35.6613 15.5293 35.5525 15.5745 35.4429 15.5745C35.3327 15.5745 35.2242 15.5292 35.1485 15.4531Z" stroke="#E62FE6" stroke-opacity="0.5" stroke-width="0.999998"/>
</svg>
