<svg width="172" height="172" viewBox="0 0 172 172" fill="none" xmlns="http://www.w3.org/2000/svg">
<path d="M86 14.3334C46.483 14.3334 14.3334 46.483 14.3334 86V115.692C14.3334 123.03 20.7619 129 28.6667 129H35.8334C37.7341 129 39.557 128.245 40.901 126.901C42.245 125.557 43 123.734 43 121.833V84.9752C43 83.0745 42.245 81.2516 40.901 79.9076C39.557 78.5636 37.7341 77.8085 35.8334 77.8085H29.326C33.3107 50.0735 57.1757 28.6667 86 28.6667C114.824 28.6667 138.689 50.0735 142.674 77.8085H136.167C134.266 77.8085 132.443 78.5636 131.099 79.9076C129.755 81.2516 129 83.0745 129 84.9752V129C129 136.905 122.572 143.333 114.667 143.333H100.333V136.167H71.6667V157.667H114.667C130.476 157.667 143.333 144.81 143.333 129C151.238 129 157.667 123.03 157.667 115.692V86C157.667 46.483 125.517 14.3334 86 14.3334Z" fill="#4F4D4D"/>
</svg>
