<svg width="36" height="37" viewBox="0 0 36 37" fill="none" xmlns="http://www.w3.org/2000/svg">
<mask id="path-1-inside-1" fill="white">
<path d="M34.4532 19.0248C33.4669 17.9823 32.1345 17.353 30.7008 17.2521L30.355 17.2184C30.338 17.2168 30.3209 17.2159 30.3038 17.2159C29.7688 17.2159 29.2295 17.3009 28.6642 17.4752L28.2554 17.0663C28.5526 16.3237 28.3918 15.4567 27.8077 14.8727L27.7383 14.8026C27.319 14.3832 26.7555 14.1809 26.1979 14.2076C26.2248 13.6498 26.0222 13.087 25.6035 12.6678L25.5358 12.6001C25.1163 12.1812 24.5526 11.9787 23.9956 12.0056C24.0226 11.4476 23.82 10.8849 23.4012 10.4655L23.3335 10.3978C22.9143 9.97918 22.3512 9.77695 21.7936 9.8036C21.8206 9.24516 21.6174 8.68172 21.1971 8.26145L21.1311 8.19606C20.5438 7.60801 19.6747 7.44727 18.9335 7.74597L18.5257 7.33857C18.6998 6.77752 18.7849 6.238 18.7849 5.69847C18.7849 5.68237 18.7842 5.66634 18.7827 5.6503L18.7509 5.30309C18.694 4.49229 18.4713 3.71868 18.0891 3.00358C17.9518 2.74664 17.6322 2.64982 17.3754 2.78708C17.1185 2.92433 17.0216 3.24391 17.1589 3.5007C17.4714 4.08544 17.6532 4.71828 17.6991 5.38177C17.6994 5.38571 17.6997 5.38958 17.7 5.39351L17.7301 5.72174C17.7272 6.23075 17.6276 6.74708 17.426 7.2994C17.3557 7.49213 17.4035 7.70814 17.5486 7.85327L18.0709 8.37515L15.7738 10.6725L15.2518 10.1505C15.1061 10.0048 14.889 9.95717 14.6957 10.0289C14.1548 10.2292 13.6371 10.3282 13.1142 10.3314L12.7959 10.2996C12.7907 10.2991 12.7855 10.2986 12.7803 10.2983C10.3552 10.1315 8.45557 8.11105 8.45557 5.6984C8.45557 5.26772 8.51759 4.84098 8.64057 4.42296L11.5001 7.27662C11.7081 7.49354 11.9713 7.66082 12.2993 7.78598C12.5568 7.88724 12.8223 7.93863 13.0886 7.93863C13.6901 7.93863 14.255 7.70498 14.6751 7.28492C15.2927 6.68133 15.4983 5.75064 15.1989 4.91389C15.1953 4.90384 15.1915 4.89407 15.1873 4.88429C15.0967 4.67222 14.9452 4.36101 14.6755 4.10154L11.8192 1.24352C12.2349 1.11801 12.6595 1.05473 13.0886 1.05473C14.1445 1.05473 15.1374 1.40236 15.9599 2.06009C16.1875 2.24199 16.5193 2.20508 16.7012 1.97754C16.883 1.75007 16.8461 1.41825 16.6187 1.23635C15.6071 0.427515 14.3864 0 13.0886 0C12.2506 0 11.4293 0.193226 10.6475 0.574403C10.4944 0.649078 10.3867 0.793153 10.3585 0.961276C10.3304 1.12933 10.3852 1.30062 10.5056 1.42121L13.9335 4.85117C13.9364 4.85413 13.9394 4.85701 13.9424 4.85989C14.042 4.95503 14.1251 5.08603 14.2109 5.28347C14.3646 5.72948 14.2581 6.21753 13.9336 6.5348C13.7085 6.75987 13.4083 6.88384 13.0886 6.88384C12.955 6.88384 12.8193 6.85712 12.6802 6.80248C12.4947 6.73168 12.357 6.64723 12.2592 6.54436C12.256 6.54098 12.2528 6.53768 12.2496 6.53444L8.81256 3.10448C8.69134 2.98347 8.51893 2.92904 8.35024 2.95808C8.18155 2.98726 8.03741 3.09653 7.96386 3.25108C7.59021 4.03608 7.40078 4.85947 7.40078 5.69833C7.40078 7.14872 7.94888 8.52675 8.94419 9.57859C9.74761 10.4276 10.7822 11.0023 11.9151 11.2403C11.515 12.1706 11.67 13.2902 12.3741 14.0723L11.1498 15.2966C10.6927 15.7533 10.4409 16.3607 10.4409 17.0068C10.4409 17.6048 10.6566 18.1698 11.0508 18.6126L9.15155 20.5118L8.01617 19.3764C7.81029 19.1705 7.47637 19.1705 7.27041 19.3764L4.43595 22.2101C4.43468 22.2114 4.43362 22.2128 4.43243 22.2141L0.154464 26.4922C-0.0514882 26.6982 -0.0514882 27.032 0.154464 27.238L3.44282 30.5263C3.64877 30.7322 3.98269 30.7322 4.18858 30.5263C4.39453 30.3203 4.39453 29.9865 4.18858 29.7805L1.27318 26.8651L5.22277 22.9155L13.0858 30.7786L9.13622 34.7282L5.65774 31.2496C5.45186 31.0437 5.11793 31.0437 4.91198 31.2496C4.70603 31.4556 4.70603 31.7895 4.91198 31.9954L8.76334 35.8468C8.8622 35.9457 8.99636 36.0012 9.13622 36.0012C9.27608 36.0012 9.41024 35.9457 9.5091 35.8468L13.7844 31.5716C13.7868 31.5693 13.7893 31.5674 13.7916 31.565L16.625 28.7309C16.7239 28.632 16.7795 28.4979 16.7795 28.358C16.7795 28.218 16.7239 28.084 16.625 27.985L15.761 27.1211L17.6972 25.1844C18.5221 25.7127 19.5967 25.6964 20.4184 25.0966C20.6537 24.9249 20.7051 24.595 20.5334 24.3598C20.3617 24.1246 20.0318 24.073 19.7966 24.2448C19.2514 24.6427 18.5084 24.5843 18.0299 24.1057C17.931 24.0069 17.7969 23.9513 17.657 23.9513C17.5171 23.9513 17.383 24.007 17.284 24.1058L15.0152 26.3752L9.89752 21.2576L12.1663 18.9887C12.372 18.7829 12.3723 18.4494 12.1668 18.2434L11.8956 17.9714C11.6377 17.7136 11.4958 17.371 11.4958 17.0067C11.4958 16.6424 11.6377 16.3 11.8956 16.0424L13.4884 14.4495C13.489 14.4488 13.4897 14.4483 13.4903 14.4477C13.491 14.4471 13.4915 14.4464 13.4921 14.4457L16.1433 11.7943C16.1444 11.7932 16.1456 11.7922 16.1468 11.7911C16.148 11.7899 16.1489 11.7887 16.1501 11.7875L18.9961 8.94119C19.0388 8.89851 19.0842 8.86068 19.1347 8.82636C19.5239 8.55734 20.0497 8.6055 20.3869 8.94316L20.4532 9.00883C20.7886 9.34423 20.8368 9.87047 20.5675 10.2607C20.5346 10.3085 20.4966 10.354 20.4549 10.3959C20.4543 10.3966 20.4536 10.3971 20.4529 10.3978L17.3132 13.5375C17.1072 13.7436 17.1072 14.0774 17.3132 14.2834C17.4161 14.3863 17.5511 14.4378 17.686 14.4378C17.821 14.4378 17.956 14.3863 18.0589 14.2834L21.196 11.1462C21.1969 11.1453 21.1979 11.1445 21.1988 11.1437C21.2413 11.1012 21.2876 11.0627 21.3365 11.0289C21.726 10.7602 22.2523 10.8085 22.5878 11.1436L22.6551 11.2108C22.9903 11.5464 23.0386 12.0726 22.7678 12.465C22.7361 12.5118 22.6983 12.5571 22.6555 12.5999C22.6554 12.6 22.6553 12.6 22.6552 12.6001L19.5155 15.7398C19.3095 15.9458 19.3095 16.2797 19.5155 16.4856C19.6184 16.5886 19.7534 16.64 19.8884 16.64C20.0233 16.64 20.1583 16.5886 20.2613 16.4856L23.4008 13.3461C23.401 13.3459 23.401 13.3459 23.4012 13.3457C23.444 13.3029 23.4894 13.2651 23.5395 13.231C23.9287 12.9625 24.4548 13.0108 24.7902 13.3457L24.8574 13.4129C25.1926 13.7486 25.241 14.2747 24.9701 14.6671C24.9383 14.7139 24.9005 14.7594 24.8576 14.8023C24.8569 14.803 24.8563 14.8038 24.8557 14.8044L21.7179 17.9421C21.5119 18.1482 21.5119 18.482 21.7179 18.688C21.8208 18.7909 21.9558 18.8424 22.0908 18.8424C22.2257 18.8424 22.3607 18.7909 22.4637 18.688L25.6034 15.5483C25.6039 15.5478 25.6044 15.5471 25.6049 15.5466C25.6473 15.5044 25.6922 15.467 25.7417 15.4333C26.1311 15.1646 26.6572 15.2126 26.9905 15.5461L27.0599 15.6162C27.3948 15.951 27.4432 16.4769 27.1749 16.8667C27.14 16.9174 27.1024 16.9627 27.0599 17.0051L21.2203 22.8448C21.0144 23.0507 21.0143 23.3846 21.2203 23.5905C21.3232 23.6936 21.4582 23.745 21.5932 23.745C21.7282 23.745 21.8631 23.6936 21.9661 23.5906L24.5834 20.9734L24.8738 21.2638C24.7026 21.8112 24.6161 22.3648 24.6161 22.9139C24.6161 22.9304 24.6168 22.9469 24.6184 22.9633L24.6502 23.3008C24.7507 24.7379 25.3797 26.0719 26.4218 27.058C27.474 28.0534 28.8526 28.6017 30.3039 28.6017C31.1385 28.6017 31.9609 28.4121 32.7485 28.0382C32.9033 27.9647 33.0127 27.8206 33.0419 27.6519C33.0712 27.4831 33.0167 27.3106 32.8957 27.1893L29.4657 23.7509C29.4633 23.7486 29.461 23.7463 29.4586 23.7439C29.3188 23.609 29.2437 23.4486 29.2053 23.3377C29.2041 23.334 29.2027 23.3304 29.2014 23.3268C29.0338 22.8752 29.1339 22.3936 29.464 22.0681C29.6917 21.8419 29.9899 21.7173 30.3038 21.7173C30.4406 21.7173 30.5744 21.7434 30.7014 21.7951C30.7056 21.7967 30.7099 21.7985 30.7141 21.8C30.9062 21.8724 31.0413 21.9541 31.1393 22.0573C31.1424 22.0606 31.1456 22.0638 31.1488 22.067L34.5794 25.4969C34.7 25.6175 34.8717 25.6725 35.0398 25.644C35.2081 25.6157 35.3522 25.5077 35.4267 25.3543C35.8071 24.5706 36 23.7497 36 22.914C36 21.4604 35.4507 20.0791 34.4532 19.0248ZM14.642 27.4939C14.6421 27.4939 14.6422 27.4941 14.6423 27.4942C14.6424 27.4944 14.6425 27.4944 14.6427 27.4945L15.5063 28.3581L13.8318 30.0329L5.96846 22.1696L7.64329 20.4951L8.77839 21.6302C8.77853 21.6304 8.7786 21.6305 8.77874 21.6307C8.77888 21.6308 8.77902 21.6309 8.77916 21.631L14.642 27.4939ZM13.1222 13.3242C12.6593 12.7723 12.6298 11.9681 13.0374 11.3836C13.0544 11.3852 13.0715 11.3861 13.0886 11.3861C13.6319 11.3861 14.1853 11.2995 14.7378 11.1282L15.0279 11.4183L13.1222 13.3242ZM34.7566 24.1829L31.8988 21.3257C31.6921 21.11 31.428 20.943 31.0922 20.8156C30.8403 20.7142 30.5751 20.6628 30.3038 20.6628C29.7094 20.6628 29.1471 20.8962 28.722 21.3187C28.1047 21.9272 27.9042 22.8569 28.2106 23.6886C28.3192 23.9997 28.496 24.2798 28.7223 24.4994L31.5773 27.3615C31.1585 27.4849 30.7326 27.5472 30.3039 27.5472C27.8901 27.5472 25.8686 25.6473 25.7019 23.2218C25.7016 23.2174 25.7012 23.213 25.7008 23.2086L25.6708 22.8901C25.6738 22.3669 25.7755 21.8353 25.9732 21.3095C26.046 21.1158 25.9987 20.8975 25.8524 20.7511L25.3292 20.2279L27.6274 17.9298L28.1492 18.4516C28.2938 18.5962 28.5088 18.6442 28.7011 18.5748C29.259 18.3735 29.7755 18.274 30.279 18.2708L30.6056 18.3027C30.6106 18.3032 30.6156 18.3036 30.6205 18.304C33.0457 18.4713 34.9453 20.4964 34.9453 22.9143C34.9453 23.3422 34.882 23.7667 34.7566 24.1829Z"/>
</mask>
<path d="M34.4532 19.0248C33.4669 17.9823 32.1345 17.353 30.7008 17.2521L30.355 17.2184C30.338 17.2168 30.3209 17.2159 30.3038 17.2159C29.7688 17.2159 29.2295 17.3009 28.6642 17.4752L28.2554 17.0663C28.5526 16.3237 28.3918 15.4567 27.8077 14.8727L27.7383 14.8026C27.319 14.3832 26.7555 14.1809 26.1979 14.2076C26.2248 13.6498 26.0222 13.087 25.6035 12.6678L25.5358 12.6001C25.1163 12.1812 24.5526 11.9787 23.9956 12.0056C24.0226 11.4476 23.82 10.8849 23.4012 10.4655L23.3335 10.3978C22.9143 9.97918 22.3512 9.77695 21.7936 9.8036C21.8206 9.24516 21.6174 8.68172 21.1971 8.26145L21.1311 8.19606C20.5438 7.60801 19.6747 7.44727 18.9335 7.74597L18.5257 7.33857C18.6998 6.77752 18.7849 6.238 18.7849 5.69847C18.7849 5.68237 18.7842 5.66634 18.7827 5.6503L18.7509 5.30309C18.694 4.49229 18.4713 3.71868 18.0891 3.00358C17.9518 2.74664 17.6322 2.64982 17.3754 2.78708C17.1185 2.92433 17.0216 3.24391 17.1589 3.5007C17.4714 4.08544 17.6532 4.71828 17.6991 5.38177C17.6994 5.38571 17.6997 5.38958 17.7 5.39351L17.7301 5.72174C17.7272 6.23075 17.6276 6.74708 17.426 7.2994C17.3557 7.49213 17.4035 7.70814 17.5486 7.85327L18.0709 8.37515L15.7738 10.6725L15.2518 10.1505C15.1061 10.0048 14.889 9.95717 14.6957 10.0289C14.1548 10.2292 13.6371 10.3282 13.1142 10.3314L12.7959 10.2996C12.7907 10.2991 12.7855 10.2986 12.7803 10.2983C10.3552 10.1315 8.45557 8.11105 8.45557 5.6984C8.45557 5.26772 8.51759 4.84098 8.64057 4.42296L11.5001 7.27662C11.7081 7.49354 11.9713 7.66082 12.2993 7.78598C12.5568 7.88724 12.8223 7.93863 13.0886 7.93863C13.6901 7.93863 14.255 7.70498 14.6751 7.28492C15.2927 6.68133 15.4983 5.75064 15.1989 4.91389C15.1953 4.90384 15.1915 4.89407 15.1873 4.88429C15.0967 4.67222 14.9452 4.36101 14.6755 4.10154L11.8192 1.24352C12.2349 1.11801 12.6595 1.05473 13.0886 1.05473C14.1445 1.05473 15.1374 1.40236 15.9599 2.06009C16.1875 2.24199 16.5193 2.20508 16.7012 1.97754C16.883 1.75007 16.8461 1.41825 16.6187 1.23635C15.6071 0.427515 14.3864 0 13.0886 0C12.2506 0 11.4293 0.193226 10.6475 0.574403C10.4944 0.649078 10.3867 0.793153 10.3585 0.961276C10.3304 1.12933 10.3852 1.30062 10.5056 1.42121L13.9335 4.85117C13.9364 4.85413 13.9394 4.85701 13.9424 4.85989C14.042 4.95503 14.1251 5.08603 14.2109 5.28347C14.3646 5.72948 14.2581 6.21753 13.9336 6.5348C13.7085 6.75987 13.4083 6.88384 13.0886 6.88384C12.955 6.88384 12.8193 6.85712 12.6802 6.80248C12.4947 6.73168 12.357 6.64723 12.2592 6.54436C12.256 6.54098 12.2528 6.53768 12.2496 6.53444L8.81256 3.10448C8.69134 2.98347 8.51893 2.92904 8.35024 2.95808C8.18155 2.98726 8.03741 3.09653 7.96386 3.25108C7.59021 4.03608 7.40078 4.85947 7.40078 5.69833C7.40078 7.14872 7.94888 8.52675 8.94419 9.57859C9.74761 10.4276 10.7822 11.0023 11.9151 11.2403C11.515 12.1706 11.67 13.2902 12.3741 14.0723L11.1498 15.2966C10.6927 15.7533 10.4409 16.3607 10.4409 17.0068C10.4409 17.6048 10.6566 18.1698 11.0508 18.6126L9.15155 20.5118L8.01617 19.3764C7.81029 19.1705 7.47637 19.1705 7.27041 19.3764L4.43595 22.2101C4.43468 22.2114 4.43362 22.2128 4.43243 22.2141L0.154464 26.4922C-0.0514882 26.6982 -0.0514882 27.032 0.154464 27.238L3.44282 30.5263C3.64877 30.7322 3.98269 30.7322 4.18858 30.5263C4.39453 30.3203 4.39453 29.9865 4.18858 29.7805L1.27318 26.8651L5.22277 22.9155L13.0858 30.7786L9.13622 34.7282L5.65774 31.2496C5.45186 31.0437 5.11793 31.0437 4.91198 31.2496C4.70603 31.4556 4.70603 31.7895 4.91198 31.9954L8.76334 35.8468C8.8622 35.9457 8.99636 36.0012 9.13622 36.0012C9.27608 36.0012 9.41024 35.9457 9.5091 35.8468L13.7844 31.5716C13.7868 31.5693 13.7893 31.5674 13.7916 31.565L16.625 28.7309C16.7239 28.632 16.7795 28.4979 16.7795 28.358C16.7795 28.218 16.7239 28.084 16.625 27.985L15.761 27.1211L17.6972 25.1844C18.5221 25.7127 19.5967 25.6964 20.4184 25.0966C20.6537 24.9249 20.7051 24.595 20.5334 24.3598C20.3617 24.1246 20.0318 24.073 19.7966 24.2448C19.2514 24.6427 18.5084 24.5843 18.0299 24.1057C17.931 24.0069 17.7969 23.9513 17.657 23.9513C17.5171 23.9513 17.383 24.007 17.284 24.1058L15.0152 26.3752L9.89752 21.2576L12.1663 18.9887C12.372 18.7829 12.3723 18.4494 12.1668 18.2434L11.8956 17.9714C11.6377 17.7136 11.4958 17.371 11.4958 17.0067C11.4958 16.6424 11.6377 16.3 11.8956 16.0424L13.4884 14.4495C13.489 14.4488 13.4897 14.4483 13.4903 14.4477C13.491 14.4471 13.4915 14.4464 13.4921 14.4457L16.1433 11.7943C16.1444 11.7932 16.1456 11.7922 16.1468 11.7911C16.148 11.7899 16.1489 11.7887 16.1501 11.7875L18.9961 8.94119C19.0388 8.89851 19.0842 8.86068 19.1347 8.82636C19.5239 8.55734 20.0497 8.6055 20.3869 8.94316L20.4532 9.00883C20.7886 9.34423 20.8368 9.87047 20.5675 10.2607C20.5346 10.3085 20.4966 10.354 20.4549 10.3959C20.4543 10.3966 20.4536 10.3971 20.4529 10.3978L17.3132 13.5375C17.1072 13.7436 17.1072 14.0774 17.3132 14.2834C17.4161 14.3863 17.5511 14.4378 17.686 14.4378C17.821 14.4378 17.956 14.3863 18.0589 14.2834L21.196 11.1462C21.1969 11.1453 21.1979 11.1445 21.1988 11.1437C21.2413 11.1012 21.2876 11.0627 21.3365 11.0289C21.726 10.7602 22.2523 10.8085 22.5878 11.1436L22.6551 11.2108C22.9903 11.5464 23.0386 12.0726 22.7678 12.465C22.7361 12.5118 22.6983 12.5571 22.6555 12.5999C22.6554 12.6 22.6553 12.6 22.6552 12.6001L19.5155 15.7398C19.3095 15.9458 19.3095 16.2797 19.5155 16.4856C19.6184 16.5886 19.7534 16.64 19.8884 16.64C20.0233 16.64 20.1583 16.5886 20.2613 16.4856L23.4008 13.3461C23.401 13.3459 23.401 13.3459 23.4012 13.3457C23.444 13.3029 23.4894 13.2651 23.5395 13.231C23.9287 12.9625 24.4548 13.0108 24.7902 13.3457L24.8574 13.4129C25.1926 13.7486 25.241 14.2747 24.9701 14.6671C24.9383 14.7139 24.9005 14.7594 24.8576 14.8023C24.8569 14.803 24.8563 14.8038 24.8557 14.8044L21.7179 17.9421C21.5119 18.1482 21.5119 18.482 21.7179 18.688C21.8208 18.7909 21.9558 18.8424 22.0908 18.8424C22.2257 18.8424 22.3607 18.7909 22.4637 18.688L25.6034 15.5483C25.6039 15.5478 25.6044 15.5471 25.6049 15.5466C25.6473 15.5044 25.6922 15.467 25.7417 15.4333C26.1311 15.1646 26.6572 15.2126 26.9905 15.5461L27.0599 15.6162C27.3948 15.951 27.4432 16.4769 27.1749 16.8667C27.14 16.9174 27.1024 16.9627 27.0599 17.0051L21.2203 22.8448C21.0144 23.0507 21.0143 23.3846 21.2203 23.5905C21.3232 23.6936 21.4582 23.745 21.5932 23.745C21.7282 23.745 21.8631 23.6936 21.9661 23.5906L24.5834 20.9734L24.8738 21.2638C24.7026 21.8112 24.6161 22.3648 24.6161 22.9139C24.6161 22.9304 24.6168 22.9469 24.6184 22.9633L24.6502 23.3008C24.7507 24.7379 25.3797 26.0719 26.4218 27.058C27.474 28.0534 28.8526 28.6017 30.3039 28.6017C31.1385 28.6017 31.9609 28.4121 32.7485 28.0382C32.9033 27.9647 33.0127 27.8206 33.0419 27.6519C33.0712 27.4831 33.0167 27.3106 32.8957 27.1893L29.4657 23.7509C29.4633 23.7486 29.461 23.7463 29.4586 23.7439C29.3188 23.609 29.2437 23.4486 29.2053 23.3377C29.2041 23.334 29.2027 23.3304 29.2014 23.3268C29.0338 22.8752 29.1339 22.3936 29.464 22.0681C29.6917 21.8419 29.9899 21.7173 30.3038 21.7173C30.4406 21.7173 30.5744 21.7434 30.7014 21.7951C30.7056 21.7967 30.7099 21.7985 30.7141 21.8C30.9062 21.8724 31.0413 21.9541 31.1393 22.0573C31.1424 22.0606 31.1456 22.0638 31.1488 22.067L34.5794 25.4969C34.7 25.6175 34.8717 25.6725 35.0398 25.644C35.2081 25.6157 35.3522 25.5077 35.4267 25.3543C35.8071 24.5706 36 23.7497 36 22.914C36 21.4604 35.4507 20.0791 34.4532 19.0248ZM14.642 27.4939C14.6421 27.4939 14.6422 27.4941 14.6423 27.4942C14.6424 27.4944 14.6425 27.4944 14.6427 27.4945L15.5063 28.3581L13.8318 30.0329L5.96846 22.1696L7.64329 20.4951L8.77839 21.6302C8.77853 21.6304 8.7786 21.6305 8.77874 21.6307C8.77888 21.6308 8.77902 21.6309 8.77916 21.631L14.642 27.4939ZM13.1222 13.3242C12.6593 12.7723 12.6298 11.9681 13.0374 11.3836C13.0544 11.3852 13.0715 11.3861 13.0886 11.3861C13.6319 11.3861 14.1853 11.2995 14.7378 11.1282L15.0279 11.4183L13.1222 13.3242ZM34.7566 24.1829L31.8988 21.3257C31.6921 21.11 31.428 20.943 31.0922 20.8156C30.8403 20.7142 30.5751 20.6628 30.3038 20.6628C29.7094 20.6628 29.1471 20.8962 28.722 21.3187C28.1047 21.9272 27.9042 22.8569 28.2106 23.6886C28.3192 23.9997 28.496 24.2798 28.7223 24.4994L31.5773 27.3615C31.1585 27.4849 30.7326 27.5472 30.3039 27.5472C27.8901 27.5472 25.8686 25.6473 25.7019 23.2218C25.7016 23.2174 25.7012 23.213 25.7008 23.2086L25.6708 22.8901C25.6738 22.3669 25.7755 21.8353 25.9732 21.3095C26.046 21.1158 25.9987 20.8975 25.8524 20.7511L25.3292 20.2279L27.6274 17.9298L28.1492 18.4516C28.2938 18.5962 28.5088 18.6442 28.7011 18.5748C29.259 18.3735 29.7755 18.274 30.279 18.2708L30.6056 18.3027C30.6106 18.3032 30.6156 18.3036 30.6205 18.304C33.0457 18.4713 34.9453 20.4964 34.9453 22.9143C34.9453 23.3422 34.882 23.7667 34.7566 24.1829Z" fill="white" fill-opacity="0.83" stroke="white" stroke-opacity="0.83" stroke-width="2" mask="url(#path-1-inside-1)"/>
</svg>
